<svg xmlns="http://www.w3.org/2000/svg" width="900" height="778" viewBox="0 0 900 778">
<rect width="900" height="778" fill="#fbfbf9"/>
<path d="M250.6,99.1 L215.6,119.6 L214.1,214.4 L185.5,303.7 L158.8,315.2 L156.9,431.1 L102.9,430.2 L99.1,670.5 L611.9,678.6 L614.5,517.6 L753.7,482.8 L755.7,352.1 L799.0,335.4 L800.9,104.8 Z" fill="#1854a014" stroke="#1854a0" stroke-width="2.5"/>
<circle cx="250.6" cy="99.1" r="3" fill="#1854a0"/>
<circle cx="215.6" cy="119.6" r="3" fill="#1854a0"/>
<circle cx="214.1" cy="214.4" r="3" fill="#1854a0"/>
<circle cx="185.5" cy="303.7" r="3" fill="#1854a0"/>
<circle cx="158.8" cy="315.2" r="3" fill="#1854a0"/>
<circle cx="156.9" cy="431.1" r="3" fill="#1854a0"/>
<circle cx="102.9" cy="430.2" r="3" fill="#1854a0"/>
<circle cx="99.1" cy="670.5" r="3" fill="#1854a0"/>
<circle cx="611.9" cy="678.6" r="3" fill="#1854a0"/>
<circle cx="614.5" cy="517.6" r="3" fill="#1854a0"/>
<circle cx="753.7" cy="482.8" r="3" fill="#1854a0"/>
<circle cx="755.7" cy="352.1" r="3" fill="#1854a0"/>
<circle cx="799.0" cy="335.4" r="3" fill="#1854a0"/>
<circle cx="800.9" cy="104.8" r="3" fill="#1854a0"/>
<text x="408.5" y="361.1" font-family="monospace" font-size="15" fill="#1854a0" text-anchor="middle">A · 3371 sq ft · 14v</text>
<text x="10" y="20" font-family="monospace" font-size="13" fill="#222">prairie-419-prairie-ridge-ln — 1 structure(s); dashed = parcel</text>
</svg>